<svg width="282" height="32" viewBox="0 0 282 32" fill="none" xmlns="http://www.w3.org/2000/svg">
<path d="M1.94709 8.24C4.07709 10.33 6.26709 11.61 8.18709 12.55C10.5571 14.18 12.7871 15.26 14.8971 16.14C17.0071 17.01 19.0071 17.66 21.0271 18.25C25.0671 19.4 29.1671 20.36 34.5771 21.89C44.2871 24.29 51.2871 25.24 60.6771 27.04C62.3171 26.59 66.8971 27.33 71.9771 28.08C77.0571 28.84 82.6471 29.6 86.2071 29.47C90.9471 29.74 93.5471 29.38 89.9671 28.86C96.4871 29.34 94.7671 29.81 100.247 29.95L98.3771 30.3C100.167 30.55 102.147 30.92 104.507 30.97L107.197 30.64C113.677 31.52 117.407 30.73 124.457 31.26C119.867 30.78 126.567 31.04 126.067 30.63C127.137 30.85 131.397 31.02 129.937 31.14C135.917 31.4 141.417 30.57 144.827 31.24L147.017 31.01C150.757 30.69 153.737 31 157.177 31.02L157.647 30.74C159.917 30.54 164.087 30.43 166.077 30.6C172.067 30.52 179.517 29.53 185.657 28.77C191.797 28.58 189.087 28.03 194.587 27.38C198.107 27.24 204.137 26.24 206.297 26.36C201.447 26.94 200.847 27.73 195.687 28.07C197.677 28.15 187.017 29.09 191.627 29.05C201.467 27.65 213.767 26.77 222.687 24.76C222.407 25.17 225.227 24.85 228.587 24.27C231.957 23.7 235.867 22.84 237.817 22.38L238.107 22.52C241.497 21.91 244.007 21.43 249.247 19.83C255.577 18.13 261.667 16.04 266.917 14.22C270.767 12.84 274.817 10.65 277.697 7.91C279.127 6.54 280.257 5.03 280.837 3.58C281.457 2.14 281.507 0.84 281.377 0.01C281.197 2.44 279.797 4.47 278.177 6.11C276.547 7.77 274.637 9.09 272.747 10.25C268.917 12.52 265.007 14.07 261.387 14.77C264.627 13.69 266.287 12.94 267.717 12.19C269.147 11.43 270.357 10.68 272.477 9.23C271.667 9.62 270.837 9.99 270.007 10.33C270.637 9.94 271.257 9.55 271.847 9.14C271.297 9.31 271.627 8.98 272.027 8.61C272.417 8.23 272.887 7.8 272.677 7.78C270.517 9.15 268.147 10.33 265.707 11.38C269.687 9.82 267.267 11.26 266.207 12.02C264.927 12.55 263.617 13.03 262.307 13.5C263.257 13.27 265.697 12.43 262.917 13.68C261.327 14.24 259.257 15.13 257.417 15.53C258.417 15.01 259.417 14.48 260.397 13.93C255.707 16.04 251.677 16.06 246.827 17.76L245.167 17.57C243.607 17.97 242.027 18.34 240.457 18.7L240.947 18.38C239.047 18.78 237.147 19.14 235.237 19.5C232.167 20.19 231.757 20.53 231.237 20.83C228.847 21.29 226.557 21.76 225.557 21.8L228.277 20.98L225.687 21.31C227.467 21.13 223.577 21.88 222.967 22.1C217.177 22.9 218.867 22.69 215.197 22.91C211.467 23.65 206.797 23.78 206.627 24.26C199.707 24.79 192.357 25.46 185.777 25.93L182.897 26.42C175.067 26.6 171.547 27.2 163.417 27.57L164.057 27.41L159.617 27.92C153.487 27.8 151.107 28.53 143.977 28.17C136.307 27.99 132.847 28.4 130.347 28.98C126.617 29.21 121.947 28.66 118.607 28.5L120.797 28.36L118.027 28.02C113.217 27.93 112.977 27.74 106.707 27.66C98.1671 26.89 99.4071 27.92 95.7371 28.02C93.0271 27.62 90.3171 27.2 87.6071 26.76L87.7771 26.91C85.3371 27.03 84.3971 27.02 82.6371 26.83C80.8871 26.62 78.3071 26.31 72.5971 25.62L73.0671 26.07C69.2771 25.17 67.5471 25.56 62.6171 24.81C60.1871 24.49 52.9271 22.64 48.6271 22.29C44.3671 21.27 41.1571 20.76 38.0971 20.26C35.0371 19.76 32.1071 19.3 28.5071 18.19C24.2571 16.64 21.0071 16.15 20.4271 15.24L21.1971 15.51C20.7471 15.11 20.2971 14.73 19.8571 14.32L19.5071 14.68C17.0471 13.57 13.4071 12.11 11.6471 10.54C9.71709 9.79 7.81709 8.9 6.00709 7.78C7.24709 8.71 8.63709 9.71 10.0971 10.63L10.0071 10.43C11.4071 11.29 15.0171 12.96 16.6971 13.84C15.9871 13.58 15.2671 13.33 14.5571 13.05C16.9071 14.23 14.8171 13.54 14.1171 13.28C11.7771 12.04 10.9271 11.6 10.1671 11.28C9.41709 10.96 8.77709 10.76 7.04709 9.63C6.32709 9.07 4.99709 7.89 5.59709 8.2C5.11709 7.83 4.47709 7.25 3.82709 6.56C3.18709 5.84 2.54709 5 2.05709 4.14C1.55709 3.28 1.24709 2.39 1.03709 1.72C0.857094 1.04 0.757094 0.57 0.647094 0.52C0.667094 0.3 0.677094 0.2 0.687094 0C0.317094 0.42 -0.112906 1.51 0.0270943 3.06C0.137094 4.6 0.827094 6.47 1.94709 8.24Z" fill="#F22929"/>
</svg>
