<svg width="201" height="46" viewBox="0 0 201 46" fill="none" xmlns="http://www.w3.org/2000/svg">
<g clip-path="url(#clip0_555_590)">
<path d="M6.79558 31.3574C13.7566 38.0293 23.9986 40.3659 26.6214 40.7859C24.8235 28.4 12.861 19.6792 0.135679 22.2775C-1.57407 37.0338 13.1873 48.0603 26.8073 42.5644C26.8073 42.5538 26.8053 42.5432 26.8053 42.5335C12.3547 40.7743 6.79558 31.3574 6.79558 31.3574Z" fill="#F22929"/>
<path opacity="0.6" d="M38.8655 22.2776C37.4172 21.9821 35.9185 21.8267 34.382 21.8267C29.215 21.8267 24.4633 23.5888 20.6885 26.5375C22.5986 28.2881 24.2193 30.3485 25.476 32.6388C28.4472 30.9587 33.0537 28.1249 34.6763 25.8124C32.6451 29.5017 30.2373 31.1914 26.1643 33.9963C27.3019 36.4285 28.0435 39.0837 28.2933 41.8867C34.6434 38.6811 39.001 32.1164 39.001 24.5321C39.0001 23.7703 38.9517 23.0181 38.8655 22.2776Z" fill="#F22929"/>
<path d="M14.2 14.5444L15.6125 22.792C16.6387 23.2487 17.6243 23.7865 18.5595 24.3958L15.9455 14.1736C17.9138 13.265 19.1182 10.3375 18.4608 7.25453C17.7327 3.83652 14.9929 1.52213 12.3401 2.08407C9.68837 2.64602 8.12965 5.87285 8.8577 9.28989C9.51507 12.3738 11.8096 14.5588 14.2 14.5444Z" fill="#F22929"/>
<path d="M23.3665 14.7134L20.9326 24.2307C21.8562 23.6465 22.8157 23.1367 23.8061 22.7071L25.1112 15.0832C27.2798 15.0503 28.9092 12.7253 29.5666 9.64138C29.7815 8.63239 30.2791 5.90474 29.9209 4.19477C29.8929 4.05863 29.7728 3.96111 29.6334 3.96111C29.494 3.96111 29.3749 4.05767 29.3449 4.19381L28.0021 10.4959C27.973 10.633 27.8897 10.7527 27.7726 10.829C27.6555 10.9053 27.5112 10.9323 27.3737 10.9033L27.3437 10.8966C27.0571 10.8358 26.8751 10.5557 26.9352 10.2699L28.2722 3.99877C28.338 3.68883 28.1405 3.38372 27.8288 3.31806L27.8181 3.31613C27.669 3.28427 27.5131 3.31323 27.3853 3.39627C27.2575 3.47931 27.1675 3.60966 27.1356 3.75835L25.7985 10.0295C25.7695 10.1666 25.6872 10.2864 25.5691 10.3626C25.4519 10.4389 25.3077 10.466 25.1702 10.436L25.1402 10.4293C24.8546 10.3684 24.6706 10.0884 24.7326 9.80263L26.0687 3.53145C26.1006 3.38275 26.0716 3.2273 25.9883 3.09985C25.905 2.9724 25.7743 2.8826 25.6252 2.85074C25.3087 2.78412 24.9969 2.98495 24.9301 3.30068L23.596 9.56124C23.567 9.69835 23.4837 9.81807 23.3665 9.89435C23.2484 9.97063 23.1051 9.9967 22.9677 9.96773L22.9377 9.96097C22.6511 9.90015 22.4691 9.62014 22.5301 9.33434L23.8787 3.00619C23.9068 2.87488 23.8419 2.74164 23.7209 2.68177C23.5999 2.62287 23.4537 2.65281 23.3665 2.75515C22.2425 4.07891 21.5358 6.75152 21.2937 7.887C20.6364 10.9719 21.1766 13.7575 23.3665 14.7134Z" fill="#F22929"/>
</g>
<path d="M65.476 16.842C65.1973 17.854 64.75 18.69 64.134 19.35C63.518 19.9953 62.7847 20.472 61.934 20.78C61.0833 21.0733 60.1447 21.22 59.118 21.22C57.6513 21.22 56.3827 20.9267 55.312 20.34C54.2413 19.7387 53.42 18.8807 52.848 17.766C52.276 16.6513 51.99 15.3093 51.99 13.74C51.99 12.1707 52.276 10.8287 52.848 9.714C53.42 8.59933 54.2413 7.74867 55.312 7.162C56.3827 6.56067 57.644 6.26 59.096 6.26C60.108 6.26 61.0393 6.40667 61.89 6.7C62.7407 6.97867 63.4593 7.41133 64.046 7.998C64.6327 8.58467 65.0507 9.34 65.3 10.264L61.978 11.606C61.7727 10.6967 61.4353 10.0733 60.966 9.736C60.5113 9.39867 59.932 9.23 59.228 9.23C58.5387 9.23 57.9373 9.39867 57.424 9.736C56.9253 10.0733 56.5367 10.5793 56.258 11.254C55.994 11.914 55.862 12.7427 55.862 13.74C55.862 14.7227 55.9867 15.5513 56.236 16.226C56.4853 16.9007 56.8593 17.4067 57.358 17.744C57.8713 18.0813 58.502 18.25 59.25 18.25C59.954 18.25 60.548 18.0593 61.032 17.678C61.5307 17.282 61.868 16.6807 62.044 15.874L65.476 16.842ZM70.9246 18.074H78.2066V21H67.1406V6.48H70.9246V18.074ZM92.2043 6.48C93.9349 6.48 95.2769 6.89067 96.2303 7.712C97.1983 8.51867 97.6823 9.59667 97.6823 10.946C97.6823 12.4273 97.2056 13.5567 96.2523 14.334C95.2989 15.1113 93.9569 15.5 92.2263 15.5L91.8743 15.698H88.9923V21H85.2743V6.48H92.2043ZM91.6763 13.014C92.4096 13.014 92.9596 12.8673 93.3263 12.574C93.6929 12.2807 93.8763 11.8113 93.8763 11.166C93.8763 10.5353 93.6929 10.0733 93.3263 9.78C92.9596 9.48667 92.4096 9.34 91.6763 9.34H88.9923V13.014H91.6763ZM93.8983 13.806L98.5403 21H94.3603L90.6423 14.642L93.8983 13.806ZM104.956 21.22C103.739 21.22 102.683 20.9927 101.788 20.538C100.908 20.0833 100.226 19.4307 99.7419 18.58C99.2579 17.7293 99.0159 16.7027 99.0159 15.5C99.0159 14.2973 99.2579 13.2707 99.7419 12.42C100.226 11.5693 100.901 10.9167 101.766 10.462C102.646 10.0073 103.651 9.78 104.78 9.78C105.939 9.78 106.921 10.0073 107.728 10.462C108.549 10.902 109.173 11.518 109.598 12.31C110.023 13.0873 110.236 13.982 110.236 14.994C110.236 15.258 110.229 15.522 110.214 15.786C110.199 16.05 110.177 16.27 110.148 16.446H101.436V14.444H108.498L106.716 15.126C106.716 14.246 106.555 13.5713 106.232 13.102C105.924 12.6327 105.44 12.398 104.78 12.398C104.311 12.398 103.907 12.508 103.57 12.728C103.247 12.948 102.998 13.2927 102.822 13.762C102.661 14.2313 102.58 14.8327 102.58 15.566C102.58 16.2847 102.675 16.8713 102.866 17.326C103.057 17.766 103.328 18.0887 103.68 18.294C104.032 18.4847 104.457 18.58 104.956 18.58C105.513 18.58 105.953 18.47 106.276 18.25C106.613 18.03 106.863 17.722 107.024 17.326L110.016 18.316C109.811 18.9467 109.451 19.482 108.938 19.922C108.439 20.3473 107.838 20.67 107.134 20.89C106.445 21.11 105.719 21.22 104.956 21.22ZM116.508 21.22C115.408 21.22 114.381 21.044 113.428 20.692C112.489 20.3253 111.712 19.8047 111.096 19.13L112.856 17.062C113.223 17.5313 113.707 17.9273 114.308 18.25C114.924 18.558 115.606 18.712 116.354 18.712C116.809 18.712 117.183 18.646 117.476 18.514C117.769 18.382 117.916 18.1767 117.916 17.898C117.916 17.6927 117.843 17.5313 117.696 17.414C117.549 17.282 117.256 17.172 116.816 17.084L115.276 16.776C113.897 16.4973 112.915 16.0867 112.328 15.544C111.756 14.9867 111.47 14.2607 111.47 13.366C111.47 12.7647 111.653 12.1927 112.02 11.65C112.387 11.0927 112.951 10.6453 113.714 10.308C114.477 9.956 115.452 9.78 116.64 9.78C117.755 9.78 118.737 9.94133 119.588 10.264C120.439 10.5867 121.113 11.056 121.612 11.672L119.83 13.696C119.478 13.256 119.023 12.9113 118.466 12.662C117.909 12.4127 117.351 12.288 116.794 12.288C116.442 12.288 116.141 12.3247 115.892 12.398C115.657 12.4567 115.481 12.5447 115.364 12.662C115.247 12.7793 115.188 12.926 115.188 13.102C115.188 13.2927 115.276 13.4613 115.452 13.608C115.643 13.74 115.987 13.8573 116.486 13.96L118.488 14.356C119.617 14.5613 120.431 14.9353 120.93 15.478C121.429 16.0207 121.678 16.6733 121.678 17.436C121.678 18.1547 121.487 18.8 121.106 19.372C120.725 19.944 120.153 20.3987 119.39 20.736C118.627 21.0587 117.667 21.22 116.508 21.22ZM127.777 6.502V17.084C127.777 17.612 127.901 17.9933 128.151 18.228C128.415 18.448 128.774 18.558 129.229 18.558C129.581 18.558 129.881 18.5213 130.131 18.448C130.395 18.36 130.629 18.2353 130.835 18.074L131.231 20.384C130.864 20.648 130.402 20.8533 129.845 21C129.287 21.1467 128.715 21.22 128.129 21.22C127.293 21.22 126.567 21.1027 125.951 20.868C125.349 20.6333 124.88 20.2593 124.543 19.746C124.22 19.2327 124.051 18.5507 124.037 17.7V7.536L127.777 6.502ZM131.055 10V12.662H122.145V10H131.055ZM138.673 14.026C138.673 13.5127 138.527 13.1093 138.233 12.816C137.955 12.508 137.573 12.354 137.089 12.354C136.605 12.354 136.187 12.4787 135.835 12.728C135.498 12.9627 135.263 13.388 135.131 14.004L131.963 13.256C132.169 12.2 132.711 11.3567 133.591 10.726C134.471 10.0953 135.711 9.78 137.309 9.78C138.38 9.78 139.289 9.94133 140.037 10.264C140.8 10.572 141.379 11.0413 141.775 11.672C142.186 12.288 142.391 13.0507 142.391 13.96V17.986C142.391 18.558 142.648 18.844 143.161 18.844C143.425 18.844 143.638 18.8147 143.799 18.756L143.579 20.89C143.139 21.0953 142.604 21.198 141.973 21.198C141.401 21.198 140.895 21.11 140.455 20.934C140.015 20.7433 139.671 20.4647 139.421 20.098C139.172 19.7167 139.047 19.24 139.047 18.668V18.536L139.465 18.382C139.465 19.0127 139.275 19.5407 138.893 19.966C138.527 20.3913 138.043 20.7067 137.441 20.912C136.855 21.1173 136.239 21.22 135.593 21.22C134.845 21.22 134.193 21.1027 133.635 20.868C133.078 20.6333 132.645 20.296 132.337 19.856C132.044 19.4013 131.897 18.844 131.897 18.184C131.897 17.392 132.132 16.7393 132.601 16.226C133.085 15.698 133.841 15.3313 134.867 15.126L139.025 14.268L139.003 16.248L136.891 16.688C136.451 16.776 136.121 16.908 135.901 17.084C135.696 17.2453 135.593 17.4947 135.593 17.832C135.593 18.1547 135.711 18.3967 135.945 18.558C136.18 18.7193 136.459 18.8 136.781 18.8C137.031 18.8 137.265 18.7633 137.485 18.69C137.72 18.6167 137.925 18.5067 138.101 18.36C138.277 18.1987 138.417 18.0007 138.519 17.766C138.622 17.5313 138.673 17.2527 138.673 16.93V14.026ZM148.554 21.22C147.806 21.22 147.146 21.0953 146.574 20.846C146.016 20.582 145.576 20.164 145.254 19.592C144.931 19.02 144.77 18.272 144.77 17.348V10H148.51V16.468C148.51 17.172 148.649 17.6633 148.928 17.942C149.206 18.2207 149.602 18.36 150.116 18.36C150.38 18.36 150.629 18.316 150.864 18.228C151.098 18.1253 151.304 17.9787 151.48 17.788C151.656 17.5827 151.788 17.326 151.876 17.018C151.978 16.6953 152.03 16.3213 152.03 15.896V10H155.77V21H152.426L152.316 18.932C151.964 19.7093 151.472 20.2887 150.842 20.67C150.211 21.0367 149.448 21.22 148.554 21.22ZM158.017 21V10H161.317L161.471 12.376C161.749 11.5547 162.16 10.9167 162.703 10.462C163.26 10.0073 163.964 9.78 164.815 9.78C165.093 9.78 165.328 9.802 165.519 9.846C165.724 9.89 165.885 9.94867 166.003 10.022L165.629 13.102C165.482 13.0433 165.291 12.9993 165.057 12.97C164.837 12.926 164.565 12.904 164.243 12.904C163.803 12.904 163.392 12.9993 163.011 13.19C162.629 13.3807 162.321 13.6667 162.087 14.048C161.867 14.4147 161.757 14.884 161.757 15.456V21H158.017ZM173.06 14.026C173.06 13.5127 172.914 13.1093 172.62 12.816C172.342 12.508 171.96 12.354 171.476 12.354C170.992 12.354 170.574 12.4787 170.222 12.728C169.885 12.9627 169.65 13.388 169.518 14.004L166.35 13.256C166.556 12.2 167.098 11.3567 167.978 10.726C168.858 10.0953 170.098 9.78 171.696 9.78C172.767 9.78 173.676 9.94133 174.424 10.264C175.187 10.572 175.766 11.0413 176.162 11.672C176.573 12.288 176.778 13.0507 176.778 13.96V17.986C176.778 18.558 177.035 18.844 177.548 18.844C177.812 18.844 178.025 18.8147 178.186 18.756L177.966 20.89C177.526 21.0953 176.991 21.198 176.36 21.198C175.788 21.198 175.282 21.11 174.842 20.934C174.402 20.7433 174.058 20.4647 173.808 20.098C173.559 19.7167 173.434 19.24 173.434 18.668V18.536L173.852 18.382C173.852 19.0127 173.662 19.5407 173.28 19.966C172.914 20.3913 172.43 20.7067 171.828 20.912C171.242 21.1173 170.626 21.22 169.98 21.22C169.232 21.22 168.58 21.1027 168.022 20.868C167.465 20.6333 167.032 20.296 166.724 19.856C166.431 19.4013 166.284 18.844 166.284 18.184C166.284 17.392 166.519 16.7393 166.988 16.226C167.472 15.698 168.228 15.3313 169.254 15.126L173.412 14.268L173.39 16.248L171.278 16.688C170.838 16.776 170.508 16.908 170.288 17.084C170.083 17.2453 169.98 17.4947 169.98 17.832C169.98 18.1547 170.098 18.3967 170.332 18.558C170.567 18.7193 170.846 18.8 171.168 18.8C171.418 18.8 171.652 18.7633 171.872 18.69C172.107 18.6167 172.312 18.5067 172.488 18.36C172.664 18.1987 172.804 18.0007 172.906 17.766C173.009 17.5313 173.06 17.2527 173.06 16.93V14.026ZM179.223 21V10H182.567L182.765 13.784L182.347 13.366C182.493 12.574 182.75 11.914 183.117 11.386C183.498 10.858 183.967 10.462 184.525 10.198C185.097 9.91933 185.735 9.78 186.439 9.78C187.201 9.78 187.861 9.92667 188.419 10.22C188.991 10.5133 189.438 10.946 189.761 11.518C190.083 12.09 190.245 12.8087 190.245 13.674V21H186.505V14.664C186.505 13.9013 186.358 13.3733 186.065 13.08C185.771 12.7867 185.397 12.64 184.943 12.64C184.591 12.64 184.261 12.728 183.953 12.904C183.645 13.0653 183.403 13.3293 183.227 13.696C183.051 14.0627 182.963 14.554 182.963 15.17V21H179.223ZM196.959 6.502V17.084C196.959 17.612 197.083 17.9933 197.333 18.228C197.597 18.448 197.956 18.558 198.411 18.558C198.763 18.558 199.063 18.5213 199.313 18.448C199.577 18.36 199.811 18.2353 200.017 18.074L200.413 20.384C200.046 20.648 199.584 20.8533 199.027 21C198.469 21.1467 197.897 21.22 197.311 21.22C196.475 21.22 195.749 21.1027 195.133 20.868C194.531 20.6333 194.062 20.2593 193.725 19.746C193.402 19.2327 193.233 18.5507 193.219 17.7V7.536L196.959 6.502ZM200.237 10V12.662H191.327V10H200.237Z" fill="white"/>
<path d="M55.494 32.76C56.9407 32.76 58.0747 33.1613 58.896 33.964C59.7267 34.7573 60.142 35.896 60.142 37.38C60.142 38.864 59.7267 40.0073 58.896 40.81C58.0747 41.6033 56.9407 42 55.494 42H52.512V32.76H55.494ZM55.606 40.95C56.6607 40.95 57.482 40.6373 58.07 40.012C58.6673 39.3773 58.966 38.5 58.966 37.38C58.966 36.26 58.6673 35.3873 58.07 34.762C57.482 34.1273 56.6607 33.81 55.606 33.81H53.632V40.95H55.606ZM64.5635 33.656C64.3115 33.656 64.1062 33.5813 63.9475 33.432C63.7982 33.2733 63.7235 33.068 63.7235 32.816C63.7235 32.564 63.7982 32.3633 63.9475 32.214C64.1062 32.0553 64.3115 31.976 64.5635 31.976C64.8155 31.976 65.0162 32.0553 65.1655 32.214C65.3242 32.3633 65.4035 32.564 65.4035 32.816C65.4035 33.068 65.3242 33.2733 65.1655 33.432C65.0162 33.5813 64.8155 33.656 64.5635 33.656ZM65.1235 35V42H64.0035V35H65.1235ZM69.4022 42V35H70.3122L70.4662 36.148C70.6622 35.7187 70.9469 35.3967 71.3202 35.182C71.7029 34.9673 72.1649 34.86 72.7062 34.86C72.8276 34.86 72.9582 34.8693 73.0982 34.888C73.2476 34.9067 73.3736 34.944 73.4762 35L73.2802 36.022C73.1776 35.9847 73.0656 35.9567 72.9442 35.938C72.8229 35.9193 72.6502 35.91 72.4262 35.91C72.1369 35.91 71.8429 35.994 71.5442 36.162C71.2549 36.33 71.0122 36.5867 70.8162 36.932C70.6202 37.268 70.5222 37.6973 70.5222 38.22V42H69.4022ZM79.5043 42.14C78.8417 42.14 78.249 41.9953 77.7263 41.706C77.213 41.4167 76.8117 41.0013 76.5223 40.46C76.233 39.9093 76.0883 39.256 76.0883 38.5C76.0883 37.744 76.233 37.0953 76.5223 36.554C76.8117 36.0033 77.2083 35.5833 77.7123 35.294C78.2163 35.0047 78.7903 34.86 79.4343 34.86C80.0877 34.86 80.643 35 81.1003 35.28C81.567 35.56 81.9217 35.9427 82.1643 36.428C82.407 36.904 82.5283 37.4407 82.5283 38.038C82.5283 38.1967 82.5237 38.3413 82.5143 38.472C82.505 38.6027 82.491 38.7193 82.4723 38.822H76.8163V37.828H81.9823L81.4083 37.94C81.4083 37.268 81.2217 36.75 80.8483 36.386C80.4843 36.022 80.0037 35.84 79.4063 35.84C78.949 35.84 78.5523 35.9473 78.2163 36.162C77.8897 36.3673 77.633 36.6707 77.4463 37.072C77.269 37.464 77.1803 37.94 77.1803 38.5C77.1803 39.0507 77.2737 39.5267 77.4603 39.928C77.647 40.3293 77.9083 40.6373 78.2443 40.852C78.5897 41.0573 79.0003 41.16 79.4763 41.16C79.9897 41.16 80.405 41.062 80.7223 40.866C81.049 40.67 81.3103 40.404 81.5063 40.068L82.3883 40.586C82.211 40.9033 81.9823 41.1787 81.7023 41.412C81.4317 41.6453 81.1097 41.8273 80.7363 41.958C80.3723 42.0793 79.9617 42.14 79.5043 42.14ZM89.2364 34.86C89.7217 34.86 90.1464 34.9347 90.5104 35.084C90.8837 35.2333 91.2057 35.448 91.4764 35.728C91.7471 36.008 91.9664 36.3393 92.1344 36.722L91.0704 37.226C90.9211 36.778 90.6924 36.4373 90.3844 36.204C90.0857 35.9613 89.6937 35.84 89.2084 35.84C88.7417 35.84 88.3404 35.9473 88.0044 36.162C87.6684 36.3673 87.4117 36.6707 87.2344 37.072C87.0571 37.464 86.9684 37.94 86.9684 38.5C86.9684 39.0507 87.0571 39.5267 87.2344 39.928C87.4117 40.3293 87.6684 40.6373 88.0044 40.852C88.3404 41.0573 88.7417 41.16 89.2084 41.16C89.5724 41.16 89.8851 41.104 90.1464 40.992C90.4171 40.88 90.6364 40.7167 90.8044 40.502C90.9817 40.2873 91.1031 40.026 91.1684 39.718L92.2044 40.082C92.0457 40.5113 91.8264 40.88 91.5464 41.188C91.2757 41.496 90.9444 41.734 90.5524 41.902C90.1697 42.0607 89.7311 42.14 89.2364 42.14C88.5831 42.14 87.9997 41.9953 87.4864 41.706C86.9731 41.4167 86.5717 41.0013 86.2824 40.46C85.9931 39.9093 85.8484 39.256 85.8484 38.5C85.8484 37.744 85.9931 37.0953 86.2824 36.554C86.5717 36.0033 86.9731 35.5833 87.4864 35.294C87.9997 35.0047 88.5831 34.86 89.2364 34.86ZM97.5044 33.012V40.068C97.5044 40.4133 97.6024 40.67 97.7984 40.838C97.9944 41.006 98.2464 41.09 98.5544 41.09C98.8251 41.09 99.0584 41.0433 99.2544 40.95C99.4504 40.8567 99.6277 40.7307 99.7864 40.572L100.178 41.51C99.9637 41.706 99.7071 41.86 99.4084 41.972C99.1191 42.084 98.7831 42.14 98.4004 42.14C98.0457 42.14 97.7144 42.0793 97.4064 41.958C97.0984 41.8273 96.8511 41.6267 96.6644 41.356C96.4871 41.076 96.3937 40.712 96.3844 40.264V33.32L97.5044 33.012ZM100.052 35V35.966H94.9844V35H100.052ZM106.296 34.86C106.958 34.86 107.542 35.0047 108.046 35.294C108.559 35.5833 108.96 36.0033 109.25 36.554C109.539 37.0953 109.684 37.744 109.684 38.5C109.684 39.256 109.539 39.9093 109.25 40.46C108.96 41.0013 108.559 41.4167 108.046 41.706C107.542 41.9953 106.958 42.14 106.296 42.14C105.642 42.14 105.059 41.9953 104.546 41.706C104.032 41.4167 103.631 41.0013 103.342 40.46C103.052 39.9093 102.908 39.256 102.908 38.5C102.908 37.744 103.052 37.0953 103.342 36.554C103.631 36.0033 104.032 35.5833 104.546 35.294C105.059 35.0047 105.642 34.86 106.296 34.86ZM106.296 35.826C105.82 35.826 105.414 35.9333 105.078 36.148C104.742 36.3627 104.48 36.6707 104.294 37.072C104.116 37.464 104.028 37.94 104.028 38.5C104.028 39.0507 104.116 39.5267 104.294 39.928C104.48 40.3293 104.742 40.6373 105.078 40.852C105.414 41.0667 105.82 41.174 106.296 41.174C106.772 41.174 107.178 41.0667 107.514 40.852C107.85 40.6373 108.106 40.3293 108.284 39.928C108.47 39.5267 108.564 39.0507 108.564 38.5C108.564 37.94 108.47 37.464 108.284 37.072C108.106 36.6707 107.85 36.3627 107.514 36.148C107.178 35.9333 106.772 35.826 106.296 35.826ZM113.472 42V35H114.382L114.536 36.148C114.732 35.7187 115.017 35.3967 115.39 35.182C115.773 34.9673 116.235 34.86 116.776 34.86C116.897 34.86 117.028 34.8693 117.168 34.888C117.317 34.9067 117.443 34.944 117.546 35L117.35 36.022C117.247 35.9847 117.135 35.9567 117.014 35.938C116.893 35.9193 116.72 35.91 116.496 35.91C116.207 35.91 115.913 35.994 115.614 36.162C115.325 36.33 115.082 36.5867 114.886 36.932C114.69 37.268 114.592 37.6973 114.592 38.22V42H113.472ZM126.621 35L123.331 43.176C123.154 43.6333 122.958 43.9927 122.743 44.254C122.538 44.5247 122.304 44.716 122.043 44.828C121.791 44.9493 121.497 45.01 121.161 45.01C120.844 45.01 120.55 44.9633 120.279 44.87C120.018 44.786 119.784 44.6693 119.579 44.52L119.887 43.54C120.074 43.708 120.27 43.8293 120.475 43.904C120.69 43.988 120.9 44.03 121.105 44.03C121.348 44.03 121.576 43.9553 121.791 43.806C122.006 43.6567 122.202 43.3533 122.379 42.896L122.743 41.986L122.043 40.32L119.817 35H121.091L122.841 39.564L123.275 40.81L123.779 39.424L125.417 35H126.621ZM137.192 40.95H142.484V42H136.072V32.76H137.192V40.95ZM146.469 33.656C146.217 33.656 146.012 33.5813 145.853 33.432C145.704 33.2733 145.629 33.068 145.629 32.816C145.629 32.564 145.704 32.3633 145.853 32.214C146.012 32.0553 146.217 31.976 146.469 31.976C146.721 31.976 146.922 32.0553 147.071 32.214C147.23 32.3633 147.309 32.564 147.309 32.816C147.309 33.068 147.23 33.2733 147.071 33.432C146.922 33.5813 146.721 33.656 146.469 33.656ZM147.029 35V42H145.909V35H147.029ZM153.828 42.14C153.146 42.14 152.516 41.9953 151.938 41.706C151.368 41.4167 150.93 41.006 150.622 40.474L151.574 39.788C151.779 40.2173 152.078 40.5533 152.47 40.796C152.871 41.0387 153.352 41.16 153.912 41.16C154.406 41.16 154.794 41.0667 155.074 40.88C155.354 40.684 155.494 40.432 155.494 40.124C155.494 39.928 155.428 39.7507 155.298 39.592C155.176 39.424 154.938 39.3027 154.584 39.228L152.904 38.878C152.222 38.738 151.732 38.5047 151.434 38.178C151.144 37.8513 151 37.4453 151 36.96C151 36.5773 151.107 36.2273 151.322 35.91C151.546 35.5927 151.858 35.3407 152.26 35.154C152.67 34.958 153.151 34.86 153.702 34.86C154.392 34.86 154.976 34.9953 155.452 35.266C155.928 35.5367 156.282 35.9193 156.516 36.414L155.578 37.03C155.419 36.6193 155.162 36.3207 154.808 36.134C154.453 35.938 154.084 35.84 153.702 35.84C153.366 35.84 153.076 35.8867 152.834 35.98C152.6 36.0733 152.418 36.204 152.288 36.372C152.166 36.5307 152.106 36.7127 152.106 36.918C152.106 37.1233 152.176 37.3147 152.316 37.492C152.456 37.66 152.717 37.7813 153.1 37.856L154.85 38.22C155.503 38.3507 155.96 38.5653 156.222 38.864C156.483 39.1627 156.614 39.5267 156.614 39.956C156.614 40.3947 156.497 40.782 156.264 41.118C156.03 41.4447 155.704 41.6967 155.284 41.874C154.864 42.0513 154.378 42.14 153.828 42.14ZM162.023 33.012V40.068C162.023 40.4133 162.121 40.67 162.317 40.838C162.513 41.006 162.765 41.09 163.073 41.09C163.343 41.09 163.577 41.0433 163.773 40.95C163.969 40.8567 164.146 40.7307 164.305 40.572L164.697 41.51C164.482 41.706 164.225 41.86 163.927 41.972C163.637 42.084 163.301 42.14 162.919 42.14C162.564 42.14 162.233 42.0793 161.925 41.958C161.617 41.8273 161.369 41.6267 161.183 41.356C161.005 41.076 160.912 40.712 160.903 40.264V33.32L162.023 33.012ZM164.571 35V35.966H159.503V35H164.571ZM168.476 33.656C168.224 33.656 168.018 33.5813 167.86 33.432C167.71 33.2733 167.636 33.068 167.636 32.816C167.636 32.564 167.71 32.3633 167.86 32.214C168.018 32.0553 168.224 31.976 168.476 31.976C168.728 31.976 168.928 32.0553 169.078 32.214C169.236 32.3633 169.316 32.564 169.316 32.816C169.316 33.068 169.236 33.2733 169.078 33.432C168.928 33.5813 168.728 33.656 168.476 33.656ZM169.036 35V42H167.916V35H169.036ZM173.314 42V35H174.294L174.392 36.568L174.21 36.414C174.36 36.0407 174.56 35.742 174.812 35.518C175.064 35.2847 175.354 35.1167 175.68 35.014C176.016 34.9113 176.362 34.86 176.716 34.86C177.22 34.86 177.678 34.958 178.088 35.154C178.499 35.3407 178.826 35.63 179.068 36.022C179.32 36.414 179.446 36.9133 179.446 37.52V42H178.326V37.912C178.326 37.1373 178.158 36.6007 177.822 36.302C177.496 35.994 177.09 35.84 176.604 35.84C176.268 35.84 175.932 35.9193 175.596 36.078C175.26 36.2367 174.98 36.4933 174.756 36.848C174.542 37.2027 174.434 37.6787 174.434 38.276V42H173.314ZM189.556 33.712L189.808 34.706C189.799 34.706 189.785 34.706 189.766 34.706C189.748 34.706 189.729 34.706 189.71 34.706C189.253 34.706 188.898 34.7993 188.646 34.986C188.404 35.1633 188.282 35.4527 188.282 35.854L187.596 35.504C187.596 35.14 187.68 34.8227 187.848 34.552C188.016 34.2813 188.245 34.076 188.534 33.936C188.824 33.7867 189.141 33.712 189.486 33.712C189.496 33.712 189.505 33.712 189.514 33.712C189.533 33.712 189.547 33.712 189.556 33.712ZM187.428 41.104C188.091 41.104 188.609 41.258 188.982 41.566C189.356 41.8647 189.542 42.266 189.542 42.77C189.542 43.2273 189.388 43.624 189.08 43.96C188.782 44.296 188.376 44.5527 187.862 44.73C187.358 44.9167 186.789 45.01 186.154 45.01C185.053 45.01 184.227 44.8233 183.676 44.45C183.135 44.0767 182.864 43.6287 182.864 43.106C182.864 42.7327 182.986 42.3967 183.228 42.098C183.48 41.8087 183.9 41.6453 184.488 41.608L184.39 41.818C184.073 41.734 183.802 41.594 183.578 41.398C183.364 41.1927 183.256 40.8987 183.256 40.516C183.256 40.1333 183.396 39.8067 183.676 39.536C183.966 39.256 184.39 39.0833 184.95 39.018L185.692 39.396H185.552C185.095 39.4427 184.768 39.5593 184.572 39.746C184.386 39.9233 184.292 40.1193 184.292 40.334C184.292 40.5953 184.386 40.7913 184.572 40.922C184.768 41.0433 185.039 41.104 185.384 41.104H187.428ZM186.14 44.072C186.682 44.072 187.125 44.016 187.47 43.904C187.825 43.792 188.086 43.6473 188.254 43.47C188.422 43.2927 188.506 43.1013 188.506 42.896C188.506 42.644 188.404 42.4433 188.198 42.294C188.002 42.1447 187.643 42.07 187.12 42.07H184.964C184.666 42.07 184.414 42.1447 184.208 42.294C184.003 42.4527 183.9 42.6673 183.9 42.938C183.9 43.2833 184.096 43.5587 184.488 43.764C184.89 43.9693 185.44 44.072 186.14 44.072ZM186.042 34.86C186.602 34.86 187.097 34.9627 187.526 35.168C187.965 35.364 188.306 35.6393 188.548 35.994C188.791 36.3487 188.912 36.7593 188.912 37.226C188.912 37.6833 188.791 38.094 188.548 38.458C188.306 38.8127 187.965 39.0927 187.526 39.298C187.097 39.494 186.602 39.592 186.042 39.592C185.118 39.592 184.409 39.3727 183.914 38.934C183.42 38.486 183.172 37.9167 183.172 37.226C183.172 36.7593 183.294 36.3487 183.536 35.994C183.788 35.6393 184.129 35.364 184.558 35.168C184.988 34.9627 185.482 34.86 186.042 34.86ZM186.042 35.77C185.557 35.77 185.151 35.9053 184.824 36.176C184.498 36.4373 184.334 36.7873 184.334 37.226C184.334 37.6553 184.498 38.0053 184.824 38.276C185.151 38.5467 185.557 38.682 186.042 38.682C186.528 38.682 186.934 38.5467 187.26 38.276C187.587 38.0053 187.75 37.6553 187.75 37.226C187.75 36.7873 187.587 36.4373 187.26 36.176C186.934 35.9053 186.528 35.77 186.042 35.77Z" fill="#E4E4E4"/>
<defs>
<clipPath id="clip0_555_590">
<rect width="39" height="42" fill="white" transform="translate(0 2)"/>
</clipPath>
</defs>
</svg>
